<svg width="92" height="92" xmlns="http://www.w3.org/2000/svg" xmlns:svg="http://www.w3.org/2000/svg" enable-background="new 0 0 92 92" version="1.1" xml:space="preserve">
 <g class="layer">
  <title>Layer 1</title>
  <path d="m70.7,88c-0.8,0 -1.5,-0.2 -2.2,-0.6l-22.5,-14.7l-22.5,14.7c-1.4,0.9 -3.2,0.8 -4.5,-0.1c-1.3,-1 -1.9,-2.7 -1.5,-4.3l7.1,-25l-21.2,-17.9c-1.2,-1 -1.7,-2.7 -1.2,-4.3s1.9,-2.6 3.5,-2.8l25.3,-1.8l11.4,-24.9c0.6,-1.4 2,-2.3 3.6,-2.3s3,0.9 3.6,2.3l11.4,24.9l25.3,1.8c1.6,0.1 3,1.2 3.5,2.8c0.5,1.5 0,3.2 -1.2,4.3l-21.1,17.8l7.1,25c0.5,1.6 -0.1,3.3 -1.5,4.3c-0.7,0.5 -1.5,0.8 -2.4,0.8zm-24.7,-24c0.8,0 1.5,0.2 2.2,0.6l15.8,10.3l-4.9,-17.3c-0.4,-1.5 0.1,-3.1 1.3,-4.1l15.5,-13.1l-17.8,-1.4c-1.5,-0.1 -2.7,-1 -3.4,-2.3l-8.7,-19.1l-8.7,19.1c-0.6,1.3 -1.9,2.2 -3.4,2.3l-17.8,1.3l15.5,13.1c1.2,1 1.7,2.6 1.3,4.1l-4.9,17.4l15.8,-10.2c0.7,-0.5 1.4,-0.7 2.2,-0.7z" id="XMLID_310_"/>
 </g>
</svg>