<svg width="92" height="92" xmlns="http://www.w3.org/2000/svg" xmlns:svg="http://www.w3.org/2000/svg" enable-background="new 0 0 92 92" version="1.1" xml:space="preserve">
 <g class="layer">
  <title>Layer 1</title>
  <path d="m68.4,7.9c-5.7,-5.1 -13.7,-7.9 -22.4,-7.9s-16.7,2.8 -22.4,7.9c-7,6.2 -10.6,15.5 -10.6,27.1c0,25.1 28.9,54.6 30.2,55.8c0.8,0.8 1.8,1.2 2.8,1.2s2.1,-0.4 2.8,-1.2c1.3,-1.2 30.2,-30.7 30.2,-55.8c0,-11.6 -3.6,-20.9 -10.6,-27.1zm-22.4,74.2c-2.7,-3 -7,-8 -11.2,-14c-9,-12.8 -13.8,-24.2 -13.8,-33.1c0,-25 19.1,-27 25,-27c23.2,0 25,20.7 25,27c0,17.6 -17.9,39.3 -25,47.1zm0,-64.8c-8.8,0 -15.9,7.3 -15.9,16.2s7.1,16.1 15.9,16.1c8.8,0 15.9,-7.3 15.9,-16.2s-7.1,-16.1 -15.9,-16.1zm0,25.3c-4.9,0 -8.9,-4.1 -8.9,-9.2s4,-9.2 8.9,-9.2c4.9,0 8.9,4.1 8.9,9.2s-4,9.2 -8.9,9.2z" fill="#ff0000" id="XMLID_1054_"/>
 </g>
</svg>