<svg width="92" height="92" xmlns="http://www.w3.org/2000/svg" xmlns:svg="http://www.w3.org/2000/svg" enable-background="new 0 0 92 92" version="1.1" xml:space="preserve">
 <g class="layer">
  <title>Layer 1</title>
  <path d="m90.2,14.8l-21.1,-9.9c-0.1,0 -0.1,0 -0.1,-0.1c-0.1,-0.1 -0.3,-0.1 -0.4,-0.1c-0.1,0 -0.3,-0.1 -0.4,-0.1c-0.1,0 -0.3,0 -0.4,0c-0.1,0 -0.3,0 -0.4,0c-0.1,0 -0.3,0 -0.4,0.1c-0.1,0 -0.3,0.1 -0.4,0.1c-0.1,0 -0.1,0 -0.2,0.1l-19.7,9.2l-19.9,-9.2c-0.1,0 -0.1,0 -0.2,-0.1c-0.1,-0.1 -0.3,-0.1 -0.4,-0.1c-0.1,0 -0.3,-0.1 -0.4,-0.1c-0.1,0 -0.3,0 -0.4,0c-0.1,0 -0.3,0 -0.4,0c-0.1,0 -0.3,0 -0.4,0.1c-0.1,0 -0.3,0.1 -0.4,0.1c-0.1,0 -0.1,0 -0.2,0.1l-21.7,9.9c-1.3,0.6 -2.3,1.8 -2.3,3.2l0,65c0,1.2 0.9,2.3 1.9,3c0.6,0.4 1.4,0.6 2,0.6c0.5,0 1.1,-0.1 1.6,-0.3l19.7,-9.3l19.8,9.2c0,0 0,0 0,0c0.2,0.1 0.4,0.2 0.6,0.2c0.1,0 0.1,0 0.2,0c0.2,0 0.4,0.1 0.7,0.1c0.2,0 0.5,0 0.7,-0.1c0.1,0 0.1,0 0.2,0c0.2,-0.1 0.4,-0.1 0.6,-0.2c0,0 0,0 0,0l19.7,-9.2l19.7,9.2c0.5,0.2 1,0.3 1.5,0.3c0.7,0 1.1,-0.2 1.6,-0.6c1,-0.7 1.4,-1.8 1.4,-3l0,-64.9c0.1,-1.4 -0.4,-2.6 -1.7,-3.2zm-48.2,62.7l-13,-6.6l0,-57.2l13,6.6l0,57.2zm-35,-57.2l14,-6.6l0,57.2l-14,6.6l0,-57.2zm43,0l14,-6.6l0,57.2l-14,6.6l0,-57.2zm35,57.2l-14,-6.6l0,-57.2l14,6.6l0,57.2z" fill="#ffffff" id="XMLID_1038_"/>
 </g>
</svg>