<svg width="92" height="92" xmlns="http://www.w3.org/2000/svg" xmlns:svg="http://www.w3.org/2000/svg" enable-background="new 0 0 92 92" version="1.1" xml:space="preserve">
 <g class="layer">
  <title>Layer 1</title>
  <path d="m89.1,6.1l-3.2,-3.2c-1.9,-1.9 -4.3,-2.9 -7,-2.9c0,0 0,0 0,0c-2.7,0 -5.1,1 -7,2.9l-63.2,63.3c-0.4,0.4 -0.7,0.8 -0.9,1.4l-7.5,18.9c-0.6,1.5 -0.3,3.2 0.9,4.3c0.7,0.8 1.8,1.2 2.8,1.2c0.5,0 1,-0.1 1.5,-0.3l19,-7.4c0.5,-0.2 1,-0.5 1.4,-0.9l63.3,-63.3c3.8,-3.8 3.8,-10.1 -0.1,-14zm-74.3,65.6l5.6,5.6l-9.3,3.6l3.7,-9.2zm68.6,-57.2l-55.2,55.2l-5.8,-5.8l55.1,-55.3c0.5,-0.5 1.1,-0.6 1.4,-0.6s0.9,0.1 1.4,0.6l3.2,3.2c0.7,0.7 0.7,1.9 -0.1,2.7z" fill="#ffffff" id="XMLID_2170_"/>
 </g>
</svg>