<svg width="92" height="92" xmlns="http://www.w3.org/2000/svg" xmlns:svg="http://www.w3.org/2000/svg" enable-background="new 0 0 92 92" version="1.1" xml:space="preserve">
 <g class="layer">
  <title>Layer 1</title>
  <path d="m78.4,30.4l-3.1,57.8c-0.1,2.1 -1.9,3.8 -4,3.8l-50.6,0c-2.1,0 -3.9,-1.7 -4,-3.8l-3.1,-57.8c-0.1,-2.2 1.6,-4.1 3.8,-4.2c2.2,-0.1 4.1,1.6 4.2,3.8l2.9,54l43.1,0l2.9,-54c0.1,-2.2 2,-3.9 4.2,-3.8c2.1,0.1 3.8,2 3.7,4.2zm10.6,-13.4c0,2.2 -1.8,4 -4,4l-78,0c-2.2,0 -4,-1.8 -4,-4s1.8,-4 4,-4l22,0l0,-9c0,-1.9 1.3,-3 3.2,-3l27.6,0c1.9,0 3.2,1.1 3.2,3l0,9l22,0c2.2,0 4,1.8 4,4zm-53,-4l20,0l0,-5l-20,0l0,5zm1.7,65c0,0 0,0 0,0c2,0 3.5,-1.9 3.5,-3.8l-1,-43.2c0,-1.9 -1.6,-3.5 -3.6,-3.5c-1.9,0 -3.5,1.6 -3.4,3.6l1,43.3c0,1.9 1.6,3.6 3.5,3.6zm16.5,0c1.9,0 3.5,-1.6 3.5,-3.5l1,-43.2c0,-1.9 -1.5,-3.6 -3.4,-3.6c-2,0 -3.5,1.5 -3.6,3.4l-1,43.2c-0.1,2 1.5,3.7 3.5,3.7c-0.1,0 -0.1,0 0,0z" fill="#ffffff" id="XMLID_1348_"/>
 </g>
</svg>